<?xml version="1.0" standalone="no"?>
<!DOCTYPE svg PUBLIC "-//W3C//DTD SVG 20010904//EN"
 "http://www.w3.org/TR/2001/REC-SVG-20010904/DTD/svg10.dtd">
<svg version="1.0" xmlns="http://www.w3.org/2000/svg"
 width="34.000000pt" height="37.000000pt" viewBox="0 0 34.000000 37.000000"
 preserveAspectRatio="xMidYMid meet">

<g transform="translate(0.000000,37.000000) scale(0.100000,-0.100000)"
fill="#000000" stroke="none">
<path d="M107 360 c-109 -27 -129 -98 -65 -225 49 -95 106 -143 151 -126 54
21 130 141 143 228 7 50 -10 84 -54 107 -36 19 -128 27 -175 16z m111 -42 c6
-6 12 -26 12 -44 0 -27 -4 -34 -20 -34 -15 0 -20 7 -20 25 0 18 -5 25 -20 25
-20 0 -21 -5 -18 -92 2 -75 6 -93 18 -93 10 0 16 12 18 33 2 18 -1 32 -7 32
-6 0 -11 9 -11 20 0 16 7 20 30 20 30 0 30 0 30 -59 0 -68 -15 -91 -61 -91
-54 0 -69 28 -69 131 0 50 5 99 11 110 19 36 72 44 107 17z"/>
</g>
</svg>
